<?xml version="1.0" encoding="UTF-8"?>
<svg version="1.1" viewBox="0 0 1080 1080" width="1080" height="1080" xmlns="http://www.w3.org/2000/svg">
<path transform="translate(0)" d="m0 0h1080v1080h-1080z" fill="#1D0B2A"/>
<path transform="translate(469,362)" d="m0 0h17l11 4 24 14 156 90 9 6 7 7 5 8 3 9v79l-4 11-7 9-8 7-182 105-10 5-4 1h-17l-10-3-24-14-26-15-10-6-7-6-7-11-3-9v-227l4-11 8-11 8-6 28-16 26-15 9-4z" fill="#159DE2"/>
<path transform="translate(420,410)" d="m0 0 5 1 24 14 28 16 24 14 28 16 78 45 19 11 6-2 12-7h2v-2l-5-2-25-14-5-4 13-8 21-12 5 1 24 14 6 8 2 6v14l-9 6-25 14-17 10-78 45-28 16-48 28-1 22 26-15 10-5v41l-9 6-18 10-4 1h-7l-9-3-8-5-1-237-15-9-4-2v40l-5-2-25-14-6-4v-32l5-10 7-6z" fill="#1D0B2A"/>
<path transform="translate(469,362)" d="m0 0h17l11 4 24 14 156 90 9 6 7 7 5 8 3 9v79l-4 11-7 9-8 7-4-1-8-7-2-3-1-3-17 10-6 3-1-39-4 1-12-12 1-5 24-14 26-15 3-2v-14l-4-9-5-5-22-13-5-1-17 10-4-1-7-8-4-4-5 2-16 9-5-2-23-13-10-6v-2l25-14 4-3-9-10-5-3-26 15-10 5-26-15-8-5 3-3-10-9-3-5-9 5-6-2-26-15-7-4 5-4 12-7h2l-5-5-7-8 1-4 10-6z" fill="#15C0C0"/>
<path transform="translate(447,372)" d="m0 0 2 3 7 8 4 3v2l-17 10 5 4 28 16 4 1 10-5 3 6 8 7 3 2-4 3 28 16 6 3 18-10 15-9h2l1-2 12 12 2 4-23 13-5 3h-2v2l5 2 28 16 5 2 19-11 4 2 9 9 2 4-14 8 13 8 21 12v2l-18 10-6-2-24-14-156-90-19-11-4 1-9 5h-3l-7-8-4-4v-3l13-8 28-16z" fill="#15B0D1"/>
<path transform="translate(469,362)" d="m0 0h17l11 4 24 14 5 4 4 6 32 32 3 6 4 2v2l-26 15-10 5-26-15-8-5 3-3-10-9-3-5-9 5-6-2-26-15-7-4 5-4 12-7h2l-5-5-7-8 1-4 10-6z" fill="#15B9C7"/>
<path transform="translate(569,430)" d="m0 0 7 6 8 9-5 4-18 10-5 3h-2v2l5 2 28 16 5 2 19-11 4 2 9 9 2 4-14 8 13 8 21 12v2l-18 10-6-2-24-14-26-15-12-7-3-5-33-33-3-6 5 1 8 4 18-10 15-9h2z" fill="#15B9C7"/>
<path transform="translate(626,551)" d="m0 0 2 4 11 11h4l1-2 1 40 22-13 2 1 1 5 10 9-3 3-49 28h-2l-4-6-8-7 1-3 7-4h2l-1-41-26 15-7 4-2 3-7-8-7-7v-2l26-15z" fill="#15B0D1"/>
<path transform="translate(568,607)" d="m0 0h2v41l-36 21h-2v-41l15-9z" fill="#1D0B2A"/>
<path transform="translate(401,485)" d="m0 0 6 2 24 14 6 4v44l-35-20-1-1z" fill="#1D0B2A"/>
<path transform="translate(587,443)" d="m0 0 6 1 26 15 8 5-5 4-18 10-12 7-5-2-23-13-10-6v-2l25-14z" fill="#1D0B2A"/>
<path transform="translate(680,542)" d="m0 0h2v33l-5 10-6 5-26 15h-1v-42l28-16z" fill="#1D0B2A"/>
<path transform="translate(474,381)" d="m0 0h7l10 4 24 14-5 4-28 16-4 1-25-14-12-7 5-4 23-13z" fill="#1D0B2A"/>
<path transform="translate(401,614)" d="m0 0 12 6 24 14v44l-10-5-17-10-6-7-3-7z" fill="#1D0B2A"/>
<path transform="translate(401,551)" d="m0 0 5 2 28 16 3 2v41l-11-6-25-14z" fill="#1D0B2A"/>
<path transform="translate(533,411)" d="m0 0 4 1 18 10 14 8v2l-26 15-10 5-26-15-8-5 3-3 28-16z" fill="#1D0B2A"/>
<path transform="translate(623,575)" d="m0 0h1v42l-26 15-7 4h-2v-41l17-10z" fill="#1D0B2A"/>
<path transform="translate(682,545)" d="m0 0 5 2 10 10 4 2v20l-4 11-7 9-8 7-4-1-8-7-2-3 1-5 6-4 5-8 1-3z" fill="#15B9C7"/>
<path transform="translate(666,528)" d="m0 0 4 2 8 8 2 5-17 10-19 11-3 3-4-2-10-10 1-5 24-14z" fill="#15B9C7"/>
<path transform="translate(438,442)" d="m0 0 12 6 6 4v10l-5-2-9-9-4-2z" fill="#15AFD1"/>
</svg>
